<svg xmlns="http://www.w3.org/2000/svg" viewBox="0 0 32 32">
<g fill="none" stroke="#38312a" stroke-width="1.3" stroke-linecap="round" stroke-linejoin="round">
<path d="M16 11c-1.6 0-2.4 1-3.6 1.2-2.4.4-4.4 2.6-4.4 5.8s2 6.1 4.6 6.5c1.4.2 2.2-.8 3.4-.8s2 1 3.4.8c2.6-.4 4.6-3.3 4.6-6.5s-2-5.4-4.4-5.8C18.4 12 17.6 11 16 11z" fill="#c1863a"/>
<path d="M16 24.5V11.2M12.6 24c-1-2.4-1.4-5.2-1-8M19.4 24c1-2.4 1.4-5.2 1-8M16 11V7"/>
<path d="M17 8c1.6-.6 2.6.4 2.4 1.8-.2 1.2-1.8 1.4-2 .2-.2-1 1-1.6 1.8-1"/>
<path d="M13.4 8.4C11.9 6.7 9.7 5.9 7.3 6.3c0 2.4 1.6 4.6 4 5.3z" fill="#728450"/>
</g>
</svg>
